<?xml version="1.0" standalone="no"?><!DOCTYPE svg PUBLIC "-//W3C//DTD SVG 1.1//EN" "http://www.w3.org/Graphics/SVG/1.1/DTD/svg11.dtd"><svg t="1730510560065" class="icon" viewBox="0 0 1024 1024" version="1.1" xmlns="http://www.w3.org/2000/svg" p-id="45788" width="16" height="16" xmlns:xlink="http://www.w3.org/1999/xlink"><path d="M510.016 30.336a32.128 32.128 0 0 1 24.512 9.216l316.8 316.736a32.32 32.32 0 0 1 0 45.248 32.32 32.32 0 0 1-45.312 0l-295.68-295.68-295.808 295.68a32.32 32.32 0 0 1-45.248 0 32.32 32.32 0 0 1 0-45.248l316.8-316.8a31.936 31.936 0 0 1 23.936-9.152z m0.512 962.688a32.128 32.128 0 0 1-24.512-9.216l-316.8-316.8a32.32 32.32 0 0 1 0-45.248 32.32 32.32 0 0 1 45.312 0l295.68 295.808 295.808-295.744a32.32 32.32 0 0 1 45.248 0 32.32 32.32 0 0 1 0 45.248l-316.8 316.736a31.936 31.936 0 0 1-23.936 9.216z" p-id="45789"></path></svg>